<svg width="81" height="73" fill="none" xmlns="http://www.w3.org/2000/svg"><path d="M80.041.45V73h-13.25V28.45c0-.933.017-1.933.05-3a56.14 56.14 0 01.3-3.25l-20.75 39.35c-1.133 2.167-2.883 3.25-5.25 3.25h-2.1c-1.166 0-2.2-.267-3.1-.8-.9-.567-1.616-1.383-2.15-2.45l-20.85-39.5c.1 1.167.184 2.3.25 3.4.067 1.067.1 2.067.1 3V73H.041V.45h11.4c.634 0 1.2.017 1.7.05s.934.133 1.3.3c.4.133.75.367 1.05.7.334.3.65.733.95 1.3l20.3 38.7a44.883 44.883 0 011.75 3.6c.567 1.233 1.1 2.5 1.6 3.8a105.7 105.7 0 011.55-3.9 53.118 53.118 0 011.8-3.65L63.591 2.8c.3-.567.617-1 .95-1.3.334-.333.684-.567 1.05-.7a4.12 4.12 0 011.3-.3 26.7 26.7 0 011.75-.05h11.4z" fill="#4592FF"/></svg>