<svg width="40" height="40" fill="none" xmlns="http://www.w3.org/2000/svg"><path fill-rule="evenodd" clip-rule="evenodd" d="M19.521 40c10.781 0 19.52-8.954 19.52-20S30.303 0 19.522 0C8.74 0 0 8.954 0 20s8.74 20 19.521 20z" fill="#fff"/><mask id="prefix__a" maskUnits="userSpaceOnUse" x="0" y="0" width="40" height="40"><path fill-rule="evenodd" clip-rule="evenodd" d="M20 40c11.046 0 20-8.954 20-20S31.046 0 20 0 0 8.954 0 20s8.954 20 20 20z" fill="#fff"/></mask><g mask="url(#prefix__a)" fill="#4592FF"><path d="M1.88 27.131c.628 0 1.187-.106 1.679-.32.499-.213.918-.513 1.256-.899.338-.385.596-.853.773-1.403.185-.55.278-1.166.278-1.847V12h3.25v10.662c0 1.059-.17 2.04-.508 2.943-.33.894-.81 1.67-1.437 2.327A6.565 6.565 0 014.9 29.458c-.894.361-1.901.542-3.02.542-1.128 0-2.139-.18-3.032-.542a6.692 6.692 0 01-2.284-1.526 6.9 6.9 0 01-1.437-2.327c-.33-.903-.495-1.884-.495-2.943V12h3.25v10.65c0 .681.088 1.297.265 1.847.185.55.447 1.021.785 1.415.346.386.765.686 1.256.9.5.213 1.063.32 1.692.32zM27.506 12v17.803h-1.668c-.257 0-.475-.041-.652-.123a1.624 1.624 0 01-.495-.443l-9.12-11.869c.048.542.072 1.042.072 1.502v10.933H12.78V12h1.703c.137 0 .254.008.35.025a.636.636 0 01.267.073c.08.033.157.087.229.16.072.066.153.157.242.271l9.156 11.918c-.024-.287-.044-.57-.06-.85-.016-.278-.025-.537-.025-.775V12h2.864zM46.362 12l-7.054 17.803h-2.936L29.318 12h2.609c.282 0 .511.07.688.21.178.139.31.32.399.541l4.12 10.86c.136.352.265.742.386 1.169.129.418.25.857.362 1.317.097-.46.202-.899.314-1.317.113-.427.238-.817.375-1.17l4.095-10.859a1.18 1.18 0 01.374-.517 1.08 1.08 0 01.7-.234h2.622z"/></g></svg>