<svg width="35" height="52" fill="none" xmlns="http://www.w3.org/2000/svg"><path opacity=".08" d="M16.226 44.07a7.85 7.85 0 003.43-.77 9.336 9.336 0 002.87-2.17c.816-.933 1.458-2.03 1.925-3.29.466-1.283.7-2.683.7-4.2 0-2.357-.607-4.212-1.82-5.565-1.19-1.353-2.847-2.03-4.97-2.03a7.55 7.55 0 00-3.36.77 8.514 8.514 0 00-2.765 2.17c-.77.933-1.377 2.053-1.82 3.36-.444 1.283-.665 2.707-.665 4.27 0 1.097.128 2.112.385 3.045.28.91.688 1.692 1.225 2.345a5.663 5.663 0 001.995 1.54c.816.35 1.773.525 2.87.525zm.77-23.835c.816-.327 1.68-.583 2.59-.77.933-.187 1.901-.28 2.905-.28a12.4 12.4 0 014.515.84 10.772 10.772 0 013.885 2.45c1.12 1.073 2.018 2.427 2.695 4.06.676 1.633 1.015 3.523 1.015 5.67 0 2.66-.49 5.168-1.47 7.525a19.458 19.458 0 01-3.99 6.16c-1.704 1.75-3.722 3.138-6.055 4.165-2.334 1.003-4.877 1.505-7.63 1.505-2.31 0-4.375-.373-6.195-1.12-1.797-.747-3.314-1.797-4.55-3.15-1.237-1.353-2.182-2.963-2.835-4.83-.63-1.89-.945-3.955-.945-6.195 0-1.563.151-3.08.455-4.55a25.449 25.449 0 011.4-4.41A32.069 32.069 0 015.13 22.93a50.336 50.336 0 013.255-4.515L21.09 2.42c.513-.607 1.225-1.12 2.135-1.54.933-.42 1.96-.63 3.08-.63H34.6L18.5 18.555l-1.505 1.68z" fill="#262D33"/></svg>