<svg width="38" height="52" fill="none" xmlns="http://www.w3.org/2000/svg"><path opacity=".08" d="M30.965 43.495c1.003 0 1.761.28 2.274.84.514.56.712 1.295.596 2.205l-.7 5.46H.515L.9 48.955c.093-.607.291-1.248.595-1.925.326-.677.828-1.295 1.505-1.855L18.575 29.95c1.54-1.493 2.87-2.882 3.99-4.165 1.12-1.307 2.041-2.578 2.764-3.815a15.783 15.783 0 001.61-3.745c.35-1.26.526-2.613.526-4.06 0-1.843-.432-3.267-1.296-4.27-.863-1.003-2.134-1.505-3.814-1.505-.817 0-1.587.14-2.31.42a7.6 7.6 0 00-1.96 1.155 8.77 8.77 0 00-1.576 1.75 8.87 8.87 0 00-1.12 2.135c-.56 1.12-1.201 1.867-1.925 2.24-.723.373-1.703.455-2.94.245l-4.83-.84c.654-2.473 1.564-4.632 2.73-6.475 1.19-1.843 2.579-3.383 4.165-4.62a16.671 16.671 0 015.25-2.765c1.914-.63 3.932-.945 6.056-.945 2.053 0 3.896.315 5.53.945 1.633.607 3.01 1.47 4.13 2.59 1.143 1.097 2.018 2.427 2.624 3.99.607 1.54.91 3.243.91 5.11 0 2.147-.314 4.107-.944 5.88a22.244 22.244 0 01-2.486 5.005 34.51 34.51 0 01-3.674 4.55c-1.4 1.447-2.882 2.94-4.445 4.48L13.85 44.755c1.26-.397 2.52-.7 3.78-.91 1.283-.233 2.45-.35 3.5-.35h9.835z" fill="#262D33"/></svg>