<svg width="37" height="52" fill="none" xmlns="http://www.w3.org/2000/svg"><path opacity=".08" d="M36.09.25l-.49 3.885c-.164 1.307-.712 2.368-1.645 3.185-.934.817-2.392 1.225-4.375 1.225H17.96l-2.8 9.905a34.82 34.82 0 012.764-.42c.887-.093 1.739-.14 2.556-.14 2.24 0 4.188.35 5.845 1.05 1.68.7 3.068 1.657 4.165 2.87 1.12 1.213 1.96 2.637 2.52 4.27.56 1.633.84 3.372.84 5.215 0 2.987-.526 5.728-1.575 8.225-1.027 2.473-2.45 4.608-4.27 6.405-1.797 1.773-3.92 3.162-6.37 4.165-2.45.98-5.087 1.47-7.91 1.47-1.517 0-2.929-.175-4.235-.525a17.725 17.725 0 01-3.64-1.33 18.562 18.562 0 01-3.08-1.925 21.367 21.367 0 01-2.45-2.345l3.36-3.885c.723-.817 1.563-1.225 2.52-1.225.606 0 1.166.187 1.68.56.513.373 1.085.782 1.715 1.225.653.443 1.423.852 2.31 1.225.886.373 1.995.56 3.325.56 1.61 0 2.998-.315 4.165-.945a8.313 8.313 0 002.87-2.52c.77-1.05 1.33-2.263 1.68-3.64.35-1.377.524-2.812.524-4.305 0-2.217-.595-3.955-1.785-5.215-1.166-1.26-2.881-1.89-5.145-1.89-2.17 0-4.351.443-6.545 1.33l-5.6-1.61L12.43.25h23.66z" fill="#262D33"/></svg>